<?xml version="1.0" standalone="no"?>
<!DOCTYPE svg PUBLIC "-//W3C//DTD SVG 20010904//EN"
 "http://www.w3.org/TR/2001/REC-SVG-20010904/DTD/svg10.dtd">
<svg version="1.0" xmlns="http://www.w3.org/2000/svg"
 width="700.000000pt" height="700.000000pt" viewBox="0 0 700.000000 700.000000"
 preserveAspectRatio="xMidYMid meet">
<metadata>
Created by potrace 1.14, written by Peter Selinger 2001-2017
</metadata>
<g transform="translate(0.000000,700.000000) scale(0.100000,-0.100000)"
fill="#000000" stroke="none">
<path d="M1213 6974 c-59 -29 -108 -92 -118 -153 l-6 -38 -249 -1 c-150 0
-273 -5 -307 -12 -257 -53 -449 -236 -514 -488 -19 -73 -19 -139 -19 -2886 0
-3130 -6 -2879 71 -3036 83 -169 262 -307 446 -345 64 -13 437 -15 3015 -13
l2943 3 73 27 c113 42 180 85 262 168 57 57 85 96 116 160 80 164 74 -108 74
3035 0 2742 -1 2812 -20 2884 -32 125 -84 215 -175 306 -108 109 -221 166
-373 190 -24 4 -840 7 -1813 8 -1260 0 -1772 3 -1774 11 -2 6 -9 30 -15 54
-14 53 -57 104 -113 130 -41 20 -58 21 -747 21 l-706 1 -51 -26z"/>
</g>
</svg>
